<mxfile host="app.diagrams.net" modified="2023-08-17T02:33:31.493Z" agent="Mozilla/5.0 (Macintosh; Intel Mac OS X 10_15_7) AppleWebKit/537.36 (KHTML, like Gecko) Chrome/115.0.0.0 Safari/537.36" etag="DhEXwqt-fb5WaCKUN5zx" version="21.6.8" type="github">
  <diagram name="第 1 页" id="0fw0KbYusiiRCm_Bzjat">
    <mxGraphModel dx="954" dy="511" grid="1" gridSize="10" guides="1" tooltips="1" connect="1" arrows="1" fold="1" page="1" pageScale="1" pageWidth="827" pageHeight="1169" math="0" shadow="0">
      <root>
        <mxCell id="0" />
        <mxCell id="1" parent="0" />
        <mxCell id="u0U-vi1oUk0xwIzfhoLy-3" value="" style="edgeStyle=orthogonalEdgeStyle;rounded=0;orthogonalLoop=1;jettySize=auto;html=1;" edge="1" parent="1" source="u0U-vi1oUk0xwIzfhoLy-1" target="u0U-vi1oUk0xwIzfhoLy-2">
          <mxGeometry relative="1" as="geometry" />
        </mxCell>
        <mxCell id="u0U-vi1oUk0xwIzfhoLy-1" value="" style="rounded=0;whiteSpace=wrap;html=1;" vertex="1" parent="1">
          <mxGeometry x="200" y="180" width="120" height="60" as="geometry" />
        </mxCell>
        <mxCell id="u0U-vi1oUk0xwIzfhoLy-2" value="" style="rounded=0;whiteSpace=wrap;html=1;" vertex="1" parent="1">
          <mxGeometry x="460" y="180" width="130" height="60" as="geometry" />
        </mxCell>
      </root>
    </mxGraphModel>
  </diagram>
</mxfile>
